#!OML:ASF X:\für Bonn\!DataBase\2005_08_11_Bastian_Final\c3d\Bastian.ASF
:FULLY-SPECIFIED
:DEGREES
224
root -22.2411 17.5397 0.684261 141.421 -77.4304 -151.93
lowerback 4.04174 -3.70081 3.418
upperback 6.39678 -5.42971 4.26007
thorax 4.49399 -2.83421 2.50149
lowerneck 4.84239 -7.5181 3.76463
upperneck 16.4526 -12.3874 7.60934
head 4.46958 -5.95645 1.38572
rclavicle -2.85256e-014 4.37326e-014
rhumerus -34.8852 39.9751 -86.466
rradius 80.4529
rwrist 5.7654
rhand -11.1911 9.94844
rfingers 7.12502
rthumb 14.8364 -19.5004
lclavicle -2.85256e-014 4.37326e-014
lhumerus -26.3816 1.42047 88.7642
lradius 6.81001
lwrist -6.00342
lhand -8.8241 -10.7206
lfingers 7.12502
lthumb 17.1157 18.5455
rfemur -2.72329 3.50013 22.1253
rtibia 33.5918
rfoot -10.9476 -4.26248
rtoes -11.8463
lfemur 4.59258 10.7274 -14.9709
ltibia 23.6057
lfoot -12.2024 -0.696258
ltoes 0.00538814
225
root -22.2333 17.5371 0.689358 141.75 -77.2963 -152.259
lowerback 4.09451 -3.79402 3.51576
upperback 6.4005 -5.5628 4.35981
thorax 4.47452 -2.90339 2.55515
lowerneck 4.95411 -7.44276 3.6466
upperneck 16.4611 -12.2684 7.52369
head 4.45102 -5.91194 1.38691
rclavicle -8.36883e-014 7.63333e-014
rhumerus -35.6738 38.8584 -86.9729
rradius 78.6909
rwrist 6.00843
rhand -11.8731 9.99096
rfingers 7.12502
rthumb 14.1792 -19.5051
lclavicle -8.36883e-014 7.63333e-014
lhumerus -26.1607 1.2634 88.7853
lradius 6.72882
lwrist -6.14508
lhand -8.88819 -10.8502
lfingers 7.12502
lthumb 17.0541 18.4213
rfemur -2.74343 3.49032 22.1146
rtibia 33.8058
rfoot -11.1129 -4.29005
rtoes -11.041
lfemur 4.52577 10.8069 -14.9639
ltibia 23.7116
lfoot -12.29 -0.678724
ltoes 0.3197
226
root -22.2261 17.5334 0.693329 141.97 -77.1559 -152.486
lowerback 4.13974 -3.88788 3.63346
upperback 6.42045 -5.69961 4.4621
thorax 4.47532 -2.97401 2.59955
lowerneck 5.00806 -7.35507 3.50874
upperneck 16.4986 -12.1375 7.42976
head 4.45084 -5.85942 1.38533
rclavicle 1.58034e-014 -4.13472e-014
rhumerus -36.2801 37.6954 -87.3097
rradius 76.9034
rwrist 6.29506
rhand -12.645 10.1159
rfingers 7.12502
rthumb 13.4354 -19.4308
lclavicle 1.58034e-014 -4.13472e-014
lhumerus -25.8733 1.10563 88.8056
lradius 6.61533
lwrist -6.22767
lhand -8.99554 -10.9261
lfingers 7.12502
lthumb 16.9507 18.3542
rfemur -2.74456 3.46649 22.135
rtibia 34.0025
rfoot -11.2554 -4.32274
rtoes -10.4168
lfemur 4.4638 10.9067 -14.9183
ltibia 23.8268
lfoot -12.3671 -0.714437
ltoes 0.631133
227
root -22.2184 17.5305 0.69604 142.228 -77.0279 -152.745
lowerback 4.17284 -3.97176 3.7268
upperback 6.4387 -5.82346 4.56203
thorax 4.48281 -3.03891 2.65413
lowerneck 5.06515 -7.26082 3.3859
upperneck 16.5479 -11.9996 7.33442
head 4.45287 -5.80269 1.38109
rclavicle -8.39865e-014 2.8625e-014
rhumerus -36.7866 36.4502 -87.538
rradius 75.1389
rwrist 6.70871
rhand -13.524 10.2505
rfingers 7.12502
rthumb 12.5881 -19.3502
lclavicle -8.39865e-014 2.8625e-014
lhumerus -25.6138 0.913271 88.8263
lradius 6.57817
lwrist -6.25378
lhand -9.06933 -10.9396
lfingers 7.12502
lthumb 16.8797 18.3468
rfemur -2.7376 3.48052 22.1524
rtibia 34.1777
rfoot -11.4099 -4.42912
rtoes -9.79054
lfemur 4.39833 10.9831 -14.897
ltibia 23.9348
lfoot -12.4525 -0.698501
ltoes 0.827003
228
root -22.2111 17.5281 0.697785 142.472 -76.9057 -152.993
lowerback 4.1892 -4.05531 3.81835
upperback 6.47378 -5.95022 4.65923
thorax 4.51773 -3.10535 2.70497
lowerneck 5.09394 -7.16298 3.22946
upperneck 16.6005 -11.8557 7.23171
head 4.46134 -5.74339 1.37854
rclavicle -8.10048e-014 -5.00937e-014
rhumerus -37.1425 35.1598 -87.6189
rradius 73.4192
rwrist 7.365
rhand -14.4235 10.3922
rfingers 7.12502
rthumb 11.7208 -19.2599
lclavicle -8.10048e-014 -5.00937e-014
lhumerus -25.3053 0.724265 88.8541
lradius 6.56401
lwrist -6.26568
lhand -9.07955 -10.8918
lfingers 7.12502
lthumb 16.8699 18.3955
rfemur -2.71202 3.46053 22.1637
rtibia 34.3235
rfoot -11.5394 -4.52184
rtoes -9.21228
lfemur 4.34035 11.051 -14.8702
ltibia 24.0302
lfoot -12.5343 -0.714284
ltoes 0.987059
229
root -22.2026 17.5261 0.698637 142.663 -76.8012 -153.191
lowerback 4.22588 -4.13795 3.90235
upperback 6.49617 -6.07219 4.74951
thorax 4.52762 -3.16945 2.75506
lowerneck 5.13148 -7.05322 3.10664
upperneck 16.675 -11.6963 7.11158
head 4.47223 -5.67574 1.36594
rclavicle -3.8763e-015 4.05521e-014
rhumerus -37.4394 33.81 -87.6064
rradius 71.8199
rwrist 8.19145
rhand -15.242 10.4631
rfingers 7.12502
rthumb 10.9313 -19.2324
lclavicle -3.8763e-015 4.05521e-014
lhumerus -25.0106 0.509641 88.882
lradius 6.58126
lwrist -6.26733
lhand -9.06084 -10.7668
lfingers 7.12502
lthumb 16.8879 18.5189
rfemur -2.66854 3.43435 22.1807
rtibia 34.4383
rfoot -11.6595 -4.65196
rtoes -8.50461
lfemur 4.28915 11.1645 -14.8273
ltibia 24.11
lfoot -12.5773 -0.771164
ltoes 1.1939
